<svg width="189" height="124" viewBox="0 0 189 124" fill="none" xmlns="http://www.w3.org/2000/svg">
<g clip-path="url(#clip0_53_84)">
<path d="M57.2241 121.193L0.581466 7.87961C-1.1382 4.43681 1.15799 0.247799 4.75568 0.263963L34.2696 0.3798C35.9744 0.387882 37.5456 1.3927 38.3795 3.01174L96.7566 116.328C98.5307 119.771 96.237 124.016 92.6121 124L61.3636 123.881C59.6365 123.876 58.0505 122.844 57.2241 121.193Z" fill="#BCBEC0"/>
<path d="M126.147 78.8881L163.113 7.80154C164.895 4.37221 162.628 0.123942 159.011 0.110472L129.727 2.25193e-05C128.047 -0.00536527 126.493 0.956356 125.637 2.52959L87.025 73.6053C85.1618 77.032 87.4234 81.3664 91.0805 81.3799L122.01 81.5011C123.722 81.5092 125.303 80.5098 126.147 78.8881Z" fill="#F1F2F2"/>
<path d="M168.535 85.4773L93.5177 85.9596C89.9002 86.0323 87.6931 90.3183 89.5216 93.718L104.331 121.223C105.179 122.799 106.733 123.768 108.411 123.768L184.257 123.803C187.914 123.806 190.193 119.482 188.342 116.045L172.704 88.0231C171.84 86.4175 170.244 85.445 168.535 85.4773Z" fill="#F1F2F2"/>
<path d="M133.431 73.8909L144.734 52.2023C146.513 48.6329 151.212 48.6033 153.028 52.1512L163.836 73.8397C165.593 77.2744 163.314 81.5012 159.701 81.5012H137.591C134.003 81.5012 131.719 77.3256 133.431 73.8909Z" fill="#F1F2F2"/>
</g>
<defs>
<clipPath id="clip0_53_84">
<rect width="189" height="124" fill="white"/>
</clipPath>
</defs>
</svg>
